<svg xmlns="http://www.w3.org/2000/svg" viewBox="76 210 422 430">
  <path d="M302.8,475.51c9.39-10.73,16.09-18.45,18.3-21.31.34-.44,1.25-1.64,2.49-1.66,1.88-.04,3.32,2.59,3.77,3.38,5.73,10.13,52.08,80.63,57.83,89.2.94,1.39,5.11,7.57,11.39,16.96,6.29,9.41,9.44,14.12,11.06,16.63,8.92,13.85,12.1,20.07,16.62,26.49.65.93,1.73,2.62,3.87,6,.92,1.45,2.17,3.45,3.28,6.21.81,2.02,1.62,4.05.91,4.68-.82.73-3.29-.79-4.03-1.25-10.48-6.47-75.41-84.73-84.51-95.5-4.05-4.79-15.97-18.64-32.42-39.07-3.58-4.45-6.53-8.16-8.58-10.75Z"/>
  <path d="M494.06,230.37c-7.54-11.34-17.99-15.96-21.28-17.29-17.13-6.91-32.45-.98-36.28.57-11.89,4.81-18.52,12.94-20.06,14.91-3.69,4.71-5.5,8.94-6.87,12.19-5.34,12.7-3.46,19.41-6.81,32.65-1.81,7.16-3.02,12.32-8.48,20.95-7.54,11.92-15.07,23.84-22.61,35.75-6.18,8.98-13.07,18.35-20.76,27.96-7.18,8.98-14.3,17.24-21.22,24.81-30.1,29.12-31.32,30.4-31.32,30.4-13.99,14.62-17.48,22.01-44.1,61.38-7.16,10.59-18.23,26.82-32.33,46.77l-62.1,94.47s-2.33,3.33-1.58,6.07c.75,2.75,6.73-4.07,6.73-4.07,17.4-18.03,34.88-36.79,52.39-56.33,24.31-27.12,47.23-54.12,68.84-80.85,21.62-26.72,41.92-53.16,60.98-79.17,44.99-64.13,47.09-68.45,47.09-68.45,2.02-4.14,5.53-9.25,12.54-19.45.65-.94,2.1-3.01,4.6-5.04.01,0,3.03-2.45,6.66-3.76,6.27-2.27,12.09,1.41,20.78,3.34,2.46.55,13.36,2.79,25.11-.5,8.9-2.49,14.78-7.17,17.84-9.67,10.21-8.31,15.07-18.34,17.29-24.11,1.01-3.08,7.58-24.54-5.04-43.53ZM475.4,282.31c-1.99,2.05-10.23,10.27-23.2,10.31-10.03.04-20.42-4.82-26.18-13.71-9.1-14.04-2.4-31.56,5.32-40.74,2.23-2.66,9.25-11.02,21.2-12.06,12.18-1.05,20.66,6.28,22.44,7.9,10.07,9.17,10.06,21.68,10.06,24.36s-.29,14.32-9.64,23.94Z"/>
  <path d="M287.55,407.36c-.51-1.16-1.25-1.88-1.59-2.13-1.64-1.19-15.1-14.17-34.36-32.92-11.64-14.38-20.91-26.67-27.71-35.94-5.12-6.99-9.56-13.26-14.55-20.97-7.45-11.54-11.68-19.46-15.05-26.78-2.12-4.61-3.51-7.68-4.88-12.22-2.31-7.7-1.58-9.81-3.74-19.62-1.54-6.98-2.56-11.63-5.4-17.43-3.59-7.31-7.93-12.11-9.92-14.16-.83-.85-5.9-6.01-12.23-9.45-12.39-6.71-31.62-7.92-47.3,2.01-3.03,1.92-14.74,9.8-19.51,25.17-3.59,11.57-1.37,21.31-.21,26.09,1.1,4.54,4.29,17.03,15.27,26.68,19.47,17.12,47.96,11.7,52.26,10.07.47-.18,2.76-1.11,5.95-1.4,3.38-.3,5.95.26,6.63.44,1.16.3,4.76,1.34,8.56,4.49,2.73,2.27,4.29,4.57,4.74,5.24,3.65,5.39,37.44,54.62,83.88,122.4,2.18-2.86,3.97-5.09,5.07-6.43,7.43-6.77,16.84-16.83,14.09-23.14ZM165.4,278.91c-5.76,8.89-16.16,13.75-26.19,13.71-12.96-.04-21.2-8.26-23.19-10.31-9.35-9.62-9.64-21.38-9.65-23.94,0-2.68,0-15.19,10.06-24.36,1.79-1.62,10.27-8.95,22.45-7.9,11.94,1.04,18.97,9.4,21.2,12.06,7.71,9.18,14.41,26.7,5.32,40.74Z"/>
  <path d="M217.81,506.53c10.42-15.16,20.84-30.32,31.26-45.47,0,0,4.16-3.41,1.33-8.52-2.83-5.11-6.15-8.44-6.15-8.44-.48.8-1.31,2.22-2.33,3.99-4.24,7.39-6.21,11.56-13.3,25.36-2.51,4.87-3.76,7.31-4.66,8.98-4.38,8.16-6.57,12.24-6.75,12.54-2.1,3.56-4.2,6.85-4.22,11.32,0,.88,0,2.78.91,3.16.88.37,2.4-.8,3.91-2.91Z"/>
  <path d="M129.65,635.89c1.59.63,4.74-3.86,7.48-7.76,4.87-6.94,7.68-12.95,12.31-22.48,5.46-11.25,1.66-3.13,5.15-10.53,30.53-64.7,36.3-77.48,36.3-77.48,9.69-21.47,24.58-53.99,47.25-102.15-20.79-29.46-41.59-58.92-62.38-88.37-.88-.91-2.09-1.94-2.89-1.6-1.13.48-.81,3.4-.65,6.54.2,4.02-.3,8.05-.28,12.08,0,2.03-.14,6.6-.44,15.74,0,0-.33,10.13-.81,19.84-1.22,24.72-5.56,59.63-5.56,59.63s-6.97,56.11-17.9,110.18c-1.46,7.2-3.63,17.22-7.98,37.24-3.28,15.1-3.6,16.31-4.26,18.4-1.92,6.09-4.14,11.41-5.47,19.98-.61,3.92-1.56,10.05.14,10.72Z"/>
  <path d="M373.66,506.53c-10.42-15.16-20.84-30.32-31.26-45.47,0,0-4.16-3.41-1.33-8.52,2.83-5.11,6.15-8.44,6.15-8.44.48.8,1.31,2.22,2.33,3.99,4.24,7.39,6.21,11.56,13.3,25.36,2.51,4.87,3.76,7.31,4.66,8.98,4.38,8.16,6.57,12.24,6.75,12.54,2.1,3.56,4.2,6.85,4.22,11.32,0,.88,0,2.78-.91,3.16-.88.37-2.4-.8-3.91-2.91Z"/>
  <path d="M461.81,635.89c-1.59.63-4.74-3.86-7.48-7.76-4.87-6.94-7.68-12.95-12.31-22.48-5.46-11.25-1.66-3.13-5.15-10.53-30.53-64.7-36.3-77.48-36.3-77.48-9.69-21.47-24.58-53.99-47.25-102.15,20.79-29.46,41.59-58.92,62.38-88.37.88-.91,2.09-1.94,2.89-1.6,1.13.48.81,3.4.65,6.54-.2,4.02.3,8.05.28,12.08,0,2.03.14,6.6.44,15.74,0,0,.33,10.13.81,19.84,1.22,24.72,5.56,59.63,5.56,59.63s6.97,56.11,17.9,110.18c1.46,7.2,3.63,17.22,7.98,37.24,3.28,15.1,3.6,16.31,4.26,18.4,1.92,6.09,4.14,11.41,5.47,19.98.61,3.92,1.56,10.05-.14,10.72Z"/>
</svg>
